<svg width="206" height="26" viewBox="0 0 206 26" fill="none" xmlns="http://www.w3.org/2000/svg">
<g clip-path="url(#clip0_2_3)">
<path d="M34.8807 0.721436H22.5174C22.3831 0.721436 22.2651 0.813289 22.2301 0.945467L20.1062 8.76753H20.033L17.9462 0.946587C17.9102 0.813289 17.7922 0.721436 17.6578 0.721436H5.28031C5.13937 0.721436 5.01701 0.82225 4.98751 0.96451L0.00657831 25.0994C-0.0327534 25.2899 0.109278 25.4691 0.299381 25.4691H11.663C11.8116 25.4691 11.9383 25.356 11.9591 25.2047L12.5152 21.1195L12.5228 21.0714C12.4245 21.1195 12.2934 21.1722 12.1361 21.2203C12.1208 21.2248 12.1044 21.2282 12.0891 21.2304C12.006 21.2416 11.9263 21.2551 11.8465 21.2685C11.6389 21.3021 11.4237 21.3167 11.2107 21.3268C10.719 21.3514 10.247 21.2595 9.78161 21.1262C9.74555 21.1162 9.70841 21.105 9.67235 21.0926C9.02447 20.863 8.92614 20.5527 8.9917 20.248C9.01027 20.1629 9.04086 20.0767 9.07692 19.996C9.09877 19.9478 9.12827 19.8918 9.16213 19.8313C9.32929 19.5524 9.62319 19.1749 9.79581 19.0035C9.81002 18.989 9.82203 18.9767 9.83405 18.9666C9.89523 18.9128 9.95423 18.8579 10.011 18.8064C10.2285 18.6003 10.4262 18.3998 10.5967 18.206C10.8184 17.9562 10.9954 17.7142 11.1211 17.4812V17.479C11.1779 17.3704 11.2227 17.2639 11.2555 17.1575C11.4084 16.668 12.0486 16.4697 12.1535 16.4406C12.2573 16.4115 12.8123 16.2446 13.2996 16.7162C13.788 17.1866 14.8019 17.7266 15.405 17.8251C16.007 17.9226 16.3598 18.8154 16.1588 19.1985C16.0146 19.474 15.8944 19.7944 15.6082 19.8717C15.3984 19.9277 15.181 19.8157 15.0674 19.6252L14.8969 19.3463L14.9057 19.8448C14.9057 19.8907 14.898 19.9355 14.8794 19.977C14.8445 20.0543 14.7735 20.1786 14.6489 20.2682C14.4675 20.3948 14.2611 20.481 14.1245 20.527C13.9803 20.5774 13.8175 20.5729 13.6831 20.5001C13.6175 20.4642 13.5553 20.4127 13.5083 20.3377L14.2512 25.0524C14.2753 25.2036 14.4042 25.3134 14.5539 25.31L24.1628 25.0569C24.3016 25.0535 24.4196 24.9527 24.448 24.8127L24.9079 22.5533V22.5488C24.9058 22.4615 24.8839 21.115 24.8981 20.509C24.9123 19.8817 24.6293 19.754 24.5103 19.5961C24.4873 19.567 24.4622 19.5199 24.4502 19.4594C24.4218 19.3138 24.3704 18.6328 24.3704 18.6328C24.3704 18.6328 24.0142 19.2612 23.9487 19.3261C23.9443 19.3306 23.941 19.334 23.9367 19.3385C23.6788 19.5883 23.2298 19.6073 23.0462 19.4908C22.8649 19.3721 22.1798 19.2242 21.6838 18.9991C21.1856 18.7739 21.296 17.3614 21.296 17.3614L20.9813 18.01C20.6645 18.6585 20.2777 18.6417 19.7762 18.5544C19.2737 18.467 18.6138 17.5249 18.5428 16.8181C18.4696 16.1113 18.557 14.9799 20.021 14.3762C21.485 13.7735 22.9763 12.715 23.7225 11.7729C24.4687 10.8309 25.5438 10.7872 25.7732 10.8017C26.0027 10.8163 27.5738 11.0269 28.1266 12.1997C28.6936 13.4028 29.8637 14.2451 29.8692 14.2485C30.2713 14.5487 34.9976 17.656 32.7688 19.1413C29.4169 21.04 26.6189 20.3119 26.4353 20.2794C26.2015 20.238 26.1971 20.3511 26.2485 20.5404V20.5426L26.7401 25.198C26.7565 25.3537 26.8844 25.4713 27.0373 25.4713H38.7451C38.9297 25.4713 39.0696 25.3022 39.0401 25.1151L35.1757 0.977952C35.1517 0.830091 35.0271 0.721436 34.8807 0.721436Z" fill="black"/>
<path d="M54.7946 0.68335C54.6296 0.68335 54.4963 0.820009 54.4963 0.989153V13.8911C54.4963 14.1958 54.3969 14.4355 54.1992 14.6125C54.0025 14.7895 53.7687 14.8791 53.4956 14.8791C52.8313 14.8791 52.497 14.5375 52.497 13.8542V0.990273C52.497 0.821129 52.3637 0.68447 52.1987 0.68447H39.7644C39.5994 0.68447 39.4662 0.821129 39.4662 0.990273V16.2457C39.4662 19.9658 40.4484 22.5208 42.4095 23.9132C44.3706 25.3056 47.8449 26.0012 52.8313 26.0012C58.1607 26.0012 61.8568 25.2484 63.9174 23.7418C65.979 22.2374 67.0093 19.5491 67.0093 15.6767V0.990273C67.0093 0.821129 66.876 0.68447 66.711 0.68447H54.7957L54.7946 0.68335Z" fill="black"/>
<path d="M88.7565 12.8853C87.9316 11.7853 86.4556 11.0079 84.3338 10.5509C83.6674 10.3985 83.3342 10.1219 83.3342 9.71748C83.3342 9.26157 83.6182 9.03418 84.1863 9.03418C84.5425 9.03418 86.0229 9.1518 88.6254 9.38703C88.7903 9.4016 88.9357 9.27726 88.9499 9.10811L89.6043 1.30509C89.6174 1.14715 89.5125 1.00377 89.3596 0.976882C86.5539 0.478412 82.8665 0.229736 78.3019 0.229736C71.4396 0.229736 68.0101 2.97412 68.0101 8.46626C68.0101 10.44 68.4165 11.9511 69.2315 13.0007C70.0444 14.0514 71.4636 14.9184 73.4881 15.6017C74.1305 15.8291 74.4517 16.1707 74.4517 16.6255C74.4517 17.1318 74.0431 17.3861 73.2303 17.3861C72.4709 17.3861 70.9173 17.292 68.5651 17.1049C68.4023 17.0915 68.257 17.2158 68.2428 17.3827L67.5905 24.9147C67.5763 25.076 67.6867 25.2216 67.8429 25.2451C71.1413 25.7481 75.0603 26.0001 79.5976 26.0001C83.226 26.0001 85.8667 25.3415 87.5186 24.0264C89.1727 22.7091 90.0009 20.6357 90.0009 17.8017C90.0009 15.6263 89.5857 13.9875 88.7587 12.8853H88.7565Z" fill="black"/>
<path d="M105.841 1.02724V7.36062C105.841 7.52976 105.707 7.66642 105.542 7.66642H104.179C104.014 7.66642 103.881 7.52976 103.881 7.36062V1.02724C103.881 0.858095 103.747 0.721436 103.582 0.721436H91.4452C91.2803 0.721436 91.147 0.858095 91.147 1.02724V25.1622C91.147 25.3313 91.2803 25.468 91.4452 25.468H103.582C103.747 25.468 103.881 25.3313 103.881 25.1622V18.8288C103.881 18.6597 104.014 18.523 104.179 18.523H105.542C105.707 18.523 105.841 18.6597 105.841 18.8288V25.1622C105.841 25.3313 105.974 25.468 106.139 25.468H118.276C118.441 25.468 118.574 25.3313 118.574 25.1622V1.02724C118.574 0.858095 118.441 0.721436 118.276 0.721436H106.139C105.974 0.721436 105.841 0.858095 105.841 1.02724Z" fill="black"/>
<path d="M139.989 6.35254C139.29 5.64572 138.057 5.29175 136.283 5.29175C135.072 5.29175 134.094 5.44409 133.348 5.74989C132.602 6.0557 131.884 6.59225 131.193 7.35508H131.139L130.827 5.93136C130.797 5.79134 130.675 5.69164 130.536 5.69164H123.298C123.134 5.69164 123 5.8283 123 5.99745V19.5502C123 19.7194 123.134 19.856 123.298 19.856H131.035C131.2 19.856 131.333 19.7194 131.333 19.5502V13.7478C131.333 13.2326 131.53 12.9749 131.921 12.9749C132.425 12.9749 132.677 13.3558 132.677 14.1208V19.5502C132.677 19.7194 132.81 19.856 132.975 19.856H140.738C140.903 19.856 141.036 19.7194 141.036 19.5502V9.9068C141.036 8.24337 140.686 7.05824 139.987 6.35142L139.989 6.35254Z" fill="black"/>
<path d="M159.707 13.0982V14.2217C159.707 14.3987 159.559 14.5398 159.386 14.5286C158.241 14.4524 157.67 13.9495 157.67 13.0197C157.67 12.4137 157.906 11.9814 158.374 11.7293C158.843 11.4773 159.619 11.3496 160.707 11.3496C161.796 11.3496 164.368 11.447 168.505 11.6408C168.658 11.6476 168.793 11.5344 168.815 11.3787L170.219 1.51348C170.241 1.36338 170.152 1.21776 170.01 1.17519C167.407 0.392199 163.739 -0.000976562 159.004 -0.000976562C154.269 -0.000976562 150.668 1.0811 148.434 3.24636C146.199 5.40939 145.084 8.72954 145.084 13.2079C145.084 17.6863 146.199 20.8687 148.434 22.8301C150.668 24.7915 154.129 25.7705 158.818 25.7705C163.759 25.7705 167.651 25.2877 170.498 24.3233C170.62 24.2818 170.701 24.1642 170.701 24.032V13.097C170.701 12.9279 170.568 12.7912 170.403 12.7912H160.006C159.841 12.7912 159.708 12.9279 159.708 13.097L159.707 13.0982Z" fill="black"/>
<path d="M197.283 2.94276C195.036 1.00824 191.372 0.0393066 186.288 0.0393066C181.205 0.0393066 177.725 1.02729 175.405 3.00101C173.084 4.97473 171.926 8.27583 171.926 12.9066C171.926 17.5373 173.041 20.9717 175.275 22.9073C177.507 24.843 181.166 25.8108 186.252 25.8108C191.338 25.8108 194.853 24.8251 197.172 22.8513C199.492 20.8776 200.652 17.5619 200.652 12.9066C200.652 8.25119 199.529 4.87839 197.283 2.94276ZM187.934 14.3303C187.551 14.6719 187.015 14.8433 186.323 14.8433C185.705 14.8433 185.18 14.6719 184.75 14.3303C184.317 13.9886 184.102 13.5283 184.102 12.9447C184.102 12.361 184.293 11.8626 184.678 11.5209C185.06 11.1793 185.597 11.0101 186.288 11.0101C186.98 11.0101 187.522 11.1748 187.916 11.5019C188.311 11.8312 188.509 12.3006 188.509 12.9066C188.509 13.5126 188.316 13.9886 187.934 14.3303Z" fill="black"/>
<path d="M203.713 24.8296C202.966 24.8296 202.501 24.3289 202.501 23.5011C202.501 22.6733 202.969 22.1726 203.706 22.1726C204.22 22.1726 204.605 22.391 204.746 22.8413L204.27 23.0486C204.185 22.736 204.018 22.6151 203.729 22.6151C203.309 22.6151 203.046 22.9276 203.046 23.5022C203.046 24.0769 203.294 24.3894 203.717 24.3894C204.018 24.3894 204.216 24.2404 204.296 23.9324L204.78 24.0814C204.628 24.5854 204.224 24.8319 203.712 24.8319L203.713 24.8296Z" fill="black"/>
<path d="M203.682 21.1218C202.399 21.1218 201.36 22.1871 201.36 23.4999C201.36 24.8127 202.399 25.878 203.682 25.878C204.964 25.878 206.001 24.8127 206.001 23.4999C206.001 22.1871 204.962 21.1218 203.682 21.1218ZM203.682 25.365C202.675 25.365 201.862 24.5293 201.862 23.4999C201.862 22.4705 202.675 21.6349 203.682 21.6349C204.688 21.6349 205.498 22.4705 205.498 23.4999C205.498 24.5293 204.686 25.365 203.682 25.365Z" fill="black"/>
</g>
<defs>
<clipPath id="clip0_2_3">
<rect width="206" height="26" fill="white"/>
</clipPath>
</defs>
</svg>
